<?xml version="1.0" encoding="UTF-8"?>
<svg xmlns="http://www.w3.org/2000/svg" xmlns:xlink="http://www.w3.org/1999/xlink" width="24px" height="24px" viewBox="0 0 24 24" version="1.1">
<g id="surface1">
<path style=" stroke:none;fill-rule:nonzero;fill:rgb(69.411767%,21.176471%,11.764706%);fill-opacity:1;" d="M 11.699219 20.027344 C 11.828125 19.941406 11.984375 19.894531 12.140625 19.898438 C 12.410156 19.90625 12.652344 20.050781 12.785156 20.28125 C 12.957031 20.105469 13.191406 20.011719 13.433594 20.019531 C 13.644531 20.023438 13.847656 20.105469 14.003906 20.246094 C 14.121094 19.816406 14.515625 19.519531 14.960938 19.53125 C 15.082031 19.535156 15.199219 19.558594 15.3125 19.605469 L 15.3125 19.628906 C 15.328125 19.058594 15.785156 18.605469 16.34375 18.585938 C 16.238281 18.363281 16.195312 18.113281 16.226562 17.867188 C 16.28125 17.421875 16.554688 17.054688 16.929688 16.863281 L 16.933594 16.867188 C 16.742188 16.664062 16.625 16.394531 16.632812 16.089844 C 16.636719 15.859375 16.714844 15.636719 16.859375 15.453125 C 16.429688 15.214844 16.242188 14.695312 16.417969 14.238281 C 15.953125 14.1875 15.605469 13.792969 15.617188 13.328125 C 15.617188 13.28125 15.621094 13.234375 15.628906 13.1875 C 15.578125 13.199219 15.527344 13.203125 15.476562 13.203125 C 15.148438 13.195312 14.871094 12.964844 14.796875 12.648438 C 14.6875 12.722656 14.554688 12.757812 14.421875 12.757812 C 14.125 12.746094 13.875 12.539062 13.8125 12.257812 C 13.746094 12.292969 13.671875 12.3125 13.601562 12.308594 C 13.539062 12.308594 13.480469 12.292969 13.425781 12.265625 L 13.425781 12.257812 C 13.359375 12.480469 13.238281 12.679688 13.074219 12.839844 C 13.152344 12.878906 13.21875 12.941406 13.261719 13.023438 C 13.324219 13.144531 13.320312 13.289062 13.253906 13.40625 C 13.484375 13.460938 13.664062 13.628906 13.730469 13.855469 C 13.796875 14.078125 13.738281 14.324219 13.574219 14.492188 C 13.726562 14.558594 13.847656 14.671875 13.921875 14.816406 C 14.105469 15.171875 13.964844 15.605469 13.609375 15.785156 C 13.691406 15.859375 13.753906 15.945312 13.804688 16.039062 C 14.027344 16.480469 13.859375 17.023438 13.417969 17.238281 C 13.347656 17.277344 13.277344 17.304688 13.199219 17.320312 L 13.199219 17.324219 C 13.320312 17.558594 13.34375 17.832031 13.261719 18.082031 C 13.183594 18.332031 13.003906 18.542969 12.769531 18.660156 C 12.605469 18.746094 12.421875 18.78125 12.238281 18.765625 C 12.265625 19.21875 12.007812 19.640625 11.59375 19.820312 C 11.640625 19.882812 11.679688 19.953125 11.703125 20.027344 Z M 11.699219 20.027344 "/>
<path style=" stroke:none;fill-rule:nonzero;fill:rgb(69.411767%,21.176471%,11.764706%);fill-opacity:1;" d="M 22.683594 0.363281 L 1.40625 0.363281 C 0.832031 0.363281 0.363281 0.832031 0.363281 1.40625 L 0.363281 22.40625 C 0.363281 22.984375 0.832031 23.449219 1.40625 23.449219 L 22.683594 23.449219 C 23.261719 23.449219 23.726562 22.984375 23.726562 22.40625 L 23.726562 1.40625 C 23.726562 0.832031 23.261719 0.363281 22.683594 0.363281 Z M 21.71875 14.5 C 21.582031 14.71875 21.363281 14.867188 21.132812 14.921875 C 21.367188 15.199219 21.40625 15.59375 21.234375 15.914062 C 21.0625 16.234375 20.710938 16.414062 20.347656 16.367188 C 20.347656 16.355469 20.34375 16.339844 20.34375 16.328125 C 20.398438 16.605469 20.292969 16.890625 20.074219 17.066406 C 19.855469 17.246094 19.554688 17.289062 19.292969 17.179688 C 19.285156 17.273438 19.253906 17.367188 19.199219 17.449219 C 19.101562 17.605469 18.945312 17.707031 18.78125 17.730469 C 18.816406 17.875 18.820312 18.027344 18.804688 18.175781 C 18.71875 18.886719 18.074219 19.394531 17.363281 19.3125 L 17.398438 19.3125 C 17.441406 19.433594 17.457031 19.558594 17.453125 19.683594 C 17.4375 20.273438 16.949219 20.742188 16.355469 20.726562 C 16.195312 20.722656 16.039062 20.683594 15.898438 20.609375 C 15.855469 20.980469 15.605469 21.292969 15.25 21.414062 C 14.898438 21.535156 14.507812 21.445312 14.246094 21.179688 C 14.132812 21.523438 13.816406 21.761719 13.453125 21.777344 C 13.089844 21.792969 12.753906 21.582031 12.605469 21.25 C 12.394531 21.425781 12.105469 21.472656 11.847656 21.371094 C 11.589844 21.273438 11.40625 21.042969 11.367188 20.769531 C 11.277344 20.8125 11.183594 20.835938 11.082031 20.832031 C 10.765625 20.824219 10.507812 20.578125 10.480469 20.269531 L 10.484375 20.261719 C 10.335938 20.492188 10.121094 20.671875 9.867188 20.769531 C 9.21875 21.03125 8.476562 20.726562 8.195312 20.082031 C 8.109375 20.175781 8.011719 20.253906 7.898438 20.308594 C 7.371094 20.578125 6.726562 20.367188 6.457031 19.84375 C 6.382812 19.703125 6.34375 19.546875 6.339844 19.386719 C 5.992188 19.523438 5.601562 19.449219 5.328125 19.199219 C 5.054688 18.949219 4.949219 18.5625 5.054688 18.207031 C 4.695312 18.269531 4.335938 18.109375 4.148438 17.796875 C 3.960938 17.484375 3.980469 17.089844 4.203125 16.804688 C 3.949219 16.699219 3.769531 16.46875 3.730469 16.195312 C 3.695312 15.921875 3.8125 15.648438 4.03125 15.484375 C 3.953125 15.425781 3.890625 15.351562 3.84375 15.265625 C 3.746094 15.078125 3.75 14.855469 3.855469 14.671875 L 3.871094 14.675781 C 3.695312 14.632812 3.53125 14.554688 3.390625 14.445312 C 2.832031 14.011719 2.71875 13.214844 3.132812 12.648438 C 3.011719 12.621094 2.898438 12.570312 2.792969 12.503906 C 2.292969 12.1875 2.148438 11.523438 2.464844 11.027344 C 2.550781 10.890625 2.667969 10.777344 2.804688 10.695312 C 2.507812 10.46875 2.367188 10.089844 2.445312 9.726562 C 2.523438 9.359375 2.804688 9.070312 3.167969 8.984375 C 2.933594 8.707031 2.894531 8.316406 3.066406 7.996094 C 3.242188 7.679688 3.59375 7.5 3.953125 7.546875 L 3.957031 7.585938 C 3.898438 7.308594 4.003906 7.019531 4.222656 6.84375 C 4.441406 6.664062 4.742188 6.621094 5.003906 6.730469 C 5.011719 6.632812 5.046875 6.539062 5.097656 6.457031 C 5.195312 6.304688 5.351562 6.207031 5.519531 6.179688 C 5.488281 6.035156 5.476562 5.886719 5.496094 5.738281 C 5.578125 5.039062 6.199219 4.53125 6.902344 4.597656 C 6.859375 4.476562 6.839844 4.355469 6.84375 4.230469 C 6.863281 3.636719 7.351562 3.167969 7.941406 3.183594 C 8.101562 3.1875 8.257812 3.226562 8.398438 3.296875 C 8.445312 2.929688 8.695312 2.617188 9.046875 2.496094 C 9.398438 2.375 9.789062 2.46875 10.050781 2.734375 C 10.167969 2.390625 10.480469 2.152344 10.84375 2.132812 C 11.207031 2.117188 11.542969 2.324219 11.691406 2.65625 C 11.902344 2.484375 12.195312 2.4375 12.449219 2.535156 C 12.707031 2.636719 12.890625 2.867188 12.929688 3.136719 C 13.019531 3.097656 13.117188 3.078125 13.214844 3.078125 C 13.535156 3.085938 13.789062 3.335938 13.820312 3.640625 L 13.816406 3.652344 C 13.960938 3.417969 14.175781 3.238281 14.429688 3.136719 C 15.082031 2.871094 15.824219 3.183594 16.101562 3.828125 C 16.1875 3.734375 16.289062 3.65625 16.398438 3.601562 C 16.925781 3.328125 17.574219 3.539062 17.84375 4.066406 C 17.917969 4.207031 17.957031 4.363281 17.960938 4.523438 C 18.304688 4.382812 18.703125 4.457031 18.976562 4.707031 C 19.253906 4.960938 19.355469 5.347656 19.246094 5.707031 C 19.605469 5.644531 19.960938 5.804688 20.148438 6.117188 C 20.339844 6.425781 20.316406 6.816406 20.097656 7.105469 C 20.355469 7.207031 20.535156 7.441406 20.570312 7.714844 C 20.605469 7.988281 20.488281 8.261719 20.269531 8.425781 C 20.347656 8.484375 20.410156 8.558594 20.453125 8.644531 C 20.550781 8.832031 20.546875 9.054688 20.445312 9.238281 C 20.613281 9.285156 20.773438 9.363281 20.914062 9.46875 C 21.46875 9.898438 21.578125 10.695312 21.164062 11.261719 C 21.285156 11.289062 21.402344 11.339844 21.503906 11.40625 C 22 11.726562 22.148438 12.386719 21.832031 12.882812 C 21.746094 13.019531 21.632812 13.132812 21.5 13.21875 C 21.890625 13.523438 21.988281 14.082031 21.71875 14.5 Z M 21.71875 14.5 "/>
<path style=" stroke:none;fill-rule:nonzero;fill:rgb(69.411767%,21.176471%,11.764706%);fill-opacity:1;" d="M 11.511719 3.628906 C 11.34375 3.800781 11.109375 3.898438 10.867188 3.890625 C 10.65625 3.886719 10.453125 3.804688 10.296875 3.664062 C 10.179688 4.097656 9.785156 4.390625 9.339844 4.378906 C 9.21875 4.375 9.097656 4.351562 8.984375 4.304688 C 8.960938 4.863281 8.507812 5.304688 7.953125 5.324219 C 8.058594 5.546875 8.101562 5.792969 8.074219 6.039062 C 8.023438 6.472656 7.757812 6.851562 7.367188 7.046875 C 7.558594 7.246094 7.671875 7.519531 7.664062 7.820312 C 7.660156 8.050781 7.582031 8.273438 7.441406 8.453125 C 7.753906 8.628906 7.957031 8.964844 7.949219 9.34375 C 7.945312 9.457031 7.921875 9.566406 7.878906 9.671875 C 8.34375 9.71875 8.695312 10.117188 8.679688 10.585938 C 8.679688 10.628906 8.675781 10.675781 8.667969 10.71875 C 8.71875 10.710938 8.769531 10.707031 8.820312 10.710938 C 9.15625 10.714844 9.433594 10.953125 9.503906 11.265625 C 9.613281 11.191406 9.746094 11.152344 9.875 11.15625 C 10.179688 11.164062 10.421875 11.375 10.492188 11.65625 C 10.605469 11.589844 10.742188 11.585938 10.863281 11.640625 C 10.90625 11.414062 11.007812 11.199219 11.15625 11.027344 C 11.109375 10.988281 11.066406 10.941406 11.039062 10.886719 C 10.976562 10.765625 10.980469 10.625 11.042969 10.503906 C 10.8125 10.453125 10.632812 10.28125 10.566406 10.054688 C 10.5 9.828125 10.5625 9.585938 10.726562 9.417969 C 10.578125 9.351562 10.453125 9.238281 10.378906 9.089844 C 10.285156 8.910156 10.273438 8.699219 10.34375 8.511719 C 10.417969 8.320312 10.566406 8.167969 10.753906 8.09375 C 10.734375 8.101562 10.714844 8.109375 10.695312 8.121094 C 10.613281 8.046875 10.546875 7.960938 10.5 7.867188 C 10.371094 7.617188 10.367188 7.328125 10.484375 7.074219 C 10.605469 6.824219 10.832031 6.644531 11.105469 6.585938 L 11.105469 6.582031 C 10.855469 6.09375 11.046875 5.5 11.53125 5.246094 C 11.695312 5.160156 11.882812 5.121094 12.070312 5.136719 C 12.042969 4.710938 12.269531 4.308594 12.652344 4.113281 C 12.671875 4.105469 12.691406 4.09375 12.710938 4.085938 C 12.660156 4.027344 12.625 3.957031 12.605469 3.882812 C 12.472656 3.972656 12.316406 4.015625 12.160156 4.011719 C 11.894531 4.003906 11.648438 3.859375 11.515625 3.625 Z M 19.320312 11.519531 C 18.976562 11.253906 18.789062 10.828125 18.820312 10.394531 C 18.550781 10.453125 18.257812 10.414062 18.007812 10.25 C 17.8125 10.128906 17.660156 9.945312 17.578125 9.730469 C 17.257812 9.910156 16.867188 9.902344 16.554688 9.707031 C 16.460938 9.644531 16.375 9.566406 16.304688 9.476562 C 16.027344 9.847656 15.507812 9.949219 15.113281 9.695312 C 15.074219 9.671875 15.039062 9.644531 15.003906 9.613281 C 14.988281 9.664062 14.964844 9.710938 14.9375 9.753906 C 14.761719 10.027344 14.421875 10.148438 14.109375 10.046875 C 14.113281 10.179688 14.078125 10.308594 14.007812 10.421875 C 13.847656 10.675781 13.539062 10.777344 13.265625 10.691406 C 13.265625 10.765625 13.242188 10.835938 13.203125 10.898438 C 13.183594 10.929688 13.15625 10.960938 13.132812 10.980469 C 13.277344 11.136719 13.378906 11.324219 13.4375 11.53125 C 13.492188 11.503906 13.554688 11.488281 13.617188 11.492188 C 13.753906 11.496094 13.878906 11.566406 13.953125 11.679688 C 14.105469 11.503906 14.34375 11.425781 14.574219 11.472656 C 14.804688 11.523438 14.988281 11.691406 15.058594 11.917969 C 15.1875 11.816406 15.347656 11.761719 15.511719 11.765625 C 15.914062 11.773438 16.222656 12.105469 16.214844 12.5 C 16.214844 12.527344 16.210938 12.550781 16.207031 12.574219 L 16.214844 12.503906 C 16.316406 12.46875 16.421875 12.453125 16.53125 12.453125 C 16.769531 12.460938 16.996094 12.558594 17.160156 12.730469 C 17.320312 12.902344 17.410156 13.132812 17.402344 13.371094 C 17.402344 13.449219 17.390625 13.527344 17.367188 13.601562 C 17.917969 13.613281 18.347656 14.070312 18.335938 14.617188 C 18.328125 14.804688 18.273438 14.984375 18.171875 15.136719 C 18.5625 15.316406 18.808594 15.714844 18.800781 16.144531 C 18.796875 16.265625 18.769531 16.386719 18.726562 16.5 L 18.730469 16.492188 L 18.828125 16.507812 C 18.820312 16.351562 18.863281 16.195312 18.949219 16.0625 C 19.09375 15.835938 19.34375 15.703125 19.609375 15.710938 C 19.550781 15.472656 19.589844 15.222656 19.71875 15.019531 C 19.835938 14.839844 20.007812 14.710938 20.210938 14.65625 C 19.898438 14.332031 19.851562 13.839844 20.089844 13.460938 C 20.15625 13.359375 20.242188 13.269531 20.34375 13.199219 C 19.875 12.890625 19.726562 12.273438 20 11.785156 C 19.753906 11.761719 19.519531 11.671875 19.324219 11.519531 Z M 19.320312 11.519531 "/>
<path style=" stroke:none;fill-rule:nonzero;fill:rgb(69.411767%,21.176471%,11.764706%);fill-opacity:1;" d="M 19.371094 8.597656 C 19.394531 8.558594 19.421875 8.523438 19.449219 8.492188 C 19.3125 8.417969 19.199219 8.304688 19.128906 8.164062 C 19.003906 7.925781 19.015625 7.640625 19.15625 7.414062 C 18.929688 7.347656 18.734375 7.195312 18.617188 6.972656 C 18.519531 6.785156 18.496094 6.566406 18.546875 6.363281 C 18.113281 6.46875 17.664062 6.261719 17.457031 5.867188 C 17.402344 5.757812 17.367188 5.636719 17.355469 5.515625 C 16.855469 5.761719 16.25 5.578125 15.96875 5.097656 C 15.824219 5.296875 15.625 5.453125 15.394531 5.546875 C 14.992188 5.707031 14.53125 5.65625 14.175781 5.40625 L 14.175781 5.394531 C 14.089844 5.675781 13.894531 5.90625 13.636719 6.039062 C 13.433594 6.148438 13.199219 6.183594 12.972656 6.148438 C 12.964844 6.515625 12.757812 6.847656 12.433594 7.015625 C 12.332031 7.066406 12.222656 7.101562 12.113281 7.117188 C 12.289062 7.542969 12.113281 8.039062 11.695312 8.253906 C 11.65625 8.277344 11.613281 8.292969 11.570312 8.308594 C 11.601562 8.347656 11.632812 8.390625 11.65625 8.4375 C 11.808594 8.734375 11.730469 9.089844 11.492188 9.300781 C 11.609375 9.363281 11.703125 9.460938 11.761719 9.578125 C 11.902344 9.84375 11.835938 10.160156 11.617188 10.351562 C 11.679688 10.390625 11.734375 10.445312 11.765625 10.511719 C 11.785156 10.546875 11.796875 10.578125 11.804688 10.609375 C 12.015625 10.550781 12.242188 10.546875 12.457031 10.597656 C 12.46875 10.546875 12.484375 10.5 12.511719 10.457031 C 12.585938 10.34375 12.710938 10.273438 12.84375 10.269531 C 12.773438 10.046875 12.828125 9.800781 12.988281 9.628906 C 13.148438 9.457031 13.390625 9.386719 13.617188 9.445312 C 13.601562 9.28125 13.640625 9.117188 13.726562 8.976562 C 13.9375 8.644531 14.382812 8.546875 14.714844 8.761719 C 14.738281 8.652344 14.78125 8.554688 14.839844 8.460938 C 14.96875 8.261719 15.167969 8.117188 15.402344 8.066406 C 15.632812 8.015625 15.875 8.058594 16.078125 8.1875 C 16.140625 8.230469 16.199219 8.28125 16.25 8.339844 C 16.546875 7.875 17.160156 7.738281 17.621094 8.03125 C 17.78125 8.132812 17.90625 8.273438 17.984375 8.445312 C 18.332031 8.210938 18.796875 8.1875 19.167969 8.429688 C 19.242188 8.476562 19.308594 8.53125 19.371094 8.597656 Z M 12.535156 13.394531 C 12.496094 13.324219 12.480469 13.246094 12.488281 13.164062 C 12.378906 13.191406 12.269531 13.203125 12.160156 13.203125 C 12.050781 13.203125 11.945312 13.191406 11.847656 13.167969 C 11.863281 13.265625 11.84375 13.371094 11.789062 13.453125 C 11.714844 13.570312 11.589844 13.640625 11.453125 13.644531 C 11.523438 13.867188 11.46875 14.109375 11.308594 14.28125 C 11.148438 14.449219 10.910156 14.519531 10.683594 14.464844 C 10.703125 14.628906 10.664062 14.792969 10.574219 14.929688 C 10.359375 15.265625 9.917969 15.363281 9.582031 15.148438 C 9.558594 15.253906 9.515625 15.355469 9.457031 15.449219 C 9.332031 15.648438 9.128906 15.789062 8.898438 15.839844 C 8.667969 15.890625 8.425781 15.847656 8.226562 15.71875 C 8.160156 15.679688 8.101562 15.628906 8.046875 15.570312 L 8.046875 15.574219 C 7.753906 16.035156 7.136719 16.171875 6.675781 15.875 C 6.519531 15.777344 6.394531 15.636719 6.3125 15.46875 C 5.96875 15.703125 5.503906 15.722656 5.132812 15.484375 C 5.054688 15.4375 4.988281 15.378906 4.925781 15.316406 C 4.902344 15.351562 4.878906 15.386719 4.847656 15.417969 C 4.988281 15.492188 5.101562 15.605469 5.175781 15.746094 C 5.296875 15.984375 5.28125 16.269531 5.140625 16.496094 C 5.367188 16.558594 5.566406 16.710938 5.679688 16.9375 C 5.777344 17.125 5.800781 17.339844 5.753906 17.546875 C 6.1875 17.4375 6.640625 17.648438 6.84375 18.046875 C 6.898438 18.15625 6.929688 18.273438 6.941406 18.394531 C 7.445312 18.144531 8.050781 18.328125 8.335938 18.8125 C 8.476562 18.609375 8.675781 18.457031 8.90625 18.363281 C 9.324219 18.195312 9.777344 18.261719 10.128906 18.5 C 10.214844 18.226562 10.40625 18 10.660156 17.867188 C 10.867188 17.761719 11.101562 17.726562 11.328125 17.761719 C 11.332031 17.410156 11.527344 17.070312 11.867188 16.894531 C 11.964844 16.84375 12.074219 16.808594 12.1875 16.792969 C 12.007812 16.367188 12.1875 15.867188 12.605469 15.65625 C 12.644531 15.632812 12.6875 15.617188 12.730469 15.605469 C 12.695312 15.5625 12.667969 15.519531 12.644531 15.472656 C 12.492188 15.175781 12.570312 14.820312 12.808594 14.609375 C 12.691406 14.550781 12.59375 14.453125 12.535156 14.335938 C 12.398438 14.066406 12.464844 13.75 12.679688 13.554688 C 12.617188 13.515625 12.566406 13.460938 12.535156 13.394531 Z M 12.535156 13.394531 "/>
<path style=" stroke:none;fill-rule:nonzero;fill:rgb(69.411767%,21.176471%,11.764706%);fill-opacity:1;" d="M 10.921875 12.34375 C 10.851562 12.394531 10.765625 12.421875 10.679688 12.417969 C 10.542969 12.414062 10.417969 12.347656 10.34375 12.234375 C 10.191406 12.40625 9.953125 12.484375 9.726562 12.4375 C 9.496094 12.386719 9.3125 12.21875 9.242188 11.996094 C 9.113281 12.097656 8.949219 12.148438 8.785156 12.140625 C 8.390625 12.132812 8.078125 11.804688 8.085938 11.40625 C 7.984375 11.441406 7.875 11.457031 7.765625 11.453125 C 7.488281 11.449219 7.230469 11.3125 7.066406 11.085938 C 6.90625 10.863281 6.855469 10.574219 6.933594 10.308594 L 6.929688 10.308594 C 6.386719 10.296875 5.949219 9.84375 5.964844 9.292969 C 5.96875 9.109375 6.023438 8.929688 6.128906 8.773438 C 5.738281 8.59375 5.492188 8.195312 5.503906 7.765625 C 5.507812 7.648438 5.53125 7.53125 5.570312 7.417969 C 5.539062 7.414062 5.503906 7.410156 5.472656 7.398438 C 5.480469 7.558594 5.4375 7.714844 5.351562 7.847656 C 5.210938 8.074219 4.957031 8.207031 4.691406 8.199219 C 4.75 8.429688 4.714844 8.675781 4.582031 8.890625 C 4.46875 9.066406 4.296875 9.199219 4.09375 9.257812 C 4.394531 9.574219 4.457031 10.066406 4.210938 10.449219 C 4.144531 10.554688 4.0625 10.640625 3.964844 10.710938 C 4.429688 11.023438 4.578125 11.636719 4.304688 12.125 C 4.550781 12.148438 4.785156 12.242188 4.976562 12.394531 C 5.320312 12.660156 5.507812 13.082031 5.476562 13.515625 C 5.75 13.453125 6.039062 13.5 6.292969 13.660156 C 6.488281 13.785156 6.636719 13.964844 6.71875 14.179688 C 7.039062 14 7.433594 14.007812 7.742188 14.207031 C 7.835938 14.265625 7.921875 14.34375 7.992188 14.433594 C 8.269531 14.0625 8.792969 13.960938 9.183594 14.214844 C 9.222656 14.238281 9.261719 14.265625 9.292969 14.296875 C 9.3125 14.25 9.335938 14.203125 9.363281 14.160156 C 9.546875 13.875 9.886719 13.761719 10.191406 13.863281 C 10.1875 13.730469 10.222656 13.601562 10.289062 13.492188 C 10.453125 13.238281 10.761719 13.136719 11.03125 13.226562 C 11.035156 13.066406 11.128906 12.925781 11.273438 12.863281 C 11.117188 12.722656 11 12.546875 10.921875 12.351562 Z M 10.921875 12.34375 "/>
</g>
</svg>
