<?xml version="1.0" encoding="UTF-8"?>
<svg xmlns="http://www.w3.org/2000/svg" xmlns:xlink="http://www.w3.org/1999/xlink" width="24px" height="24px" viewBox="0 0 24 24" version="1.1">
<g id="surface1">
<path style=" stroke:none;fill-rule:nonzero;fill:rgb(100%,100%,100%);fill-opacity:1;" d="M 9.699219 0.988281 C 6.648438 1.671875 4.148438 3.359375 2.429688 5.921875 C -0.578125 10.429688 0.0195312 16.480469 3.859375 20.339844 C 5.011719 21.5 6.761719 22.621094 8.078125 23.050781 C 8.570312 23.210938 8.628906 23.210938 8.851562 23.058594 C 9.089844 22.898438 9.101562 22.859375 9.101562 21.710938 L 9.101562 20.53125 L 8.21875 20.578125 C 7.191406 20.628906 6.390625 20.449219 5.910156 20.039062 C 5.738281 19.898438 5.410156 19.421875 5.179688 18.980469 C 4.800781 18.238281 4.519531 17.898438 3.738281 17.210938 C 3.480469 16.980469 3.46875 16.96875 3.648438 16.839844 C 4.078125 16.519531 4.949219 16.828125 5.5 17.488281 C 6.460938 18.660156 6.828125 18.96875 7.378906 19.089844 C 7.871094 19.191406 8.320312 19.148438 9 18.949219 C 9.089844 18.921875 9.210938 18.710938 9.269531 18.46875 C 9.328125 18.238281 9.488281 17.890625 9.621094 17.699219 L 9.859375 17.351562 L 9.050781 17.191406 C 7.351562 16.839844 6.300781 16.230469 5.609375 15.191406 C 4.96875 14.230469 4.761719 13.398438 4.75 11.851562 C 4.75 10.390625 4.910156 9.789062 5.539062 8.96875 C 5.820312 8.609375 5.851562 8.5 5.769531 8.289062 C 5.621094 7.929688 5.660156 6.410156 5.820312 5.949219 C 5.949219 5.609375 6.019531 5.550781 6.289062 5.519531 C 6.738281 5.46875 7.578125 5.761719 8.429688 6.238281 L 9.160156 6.660156 L 9.800781 6.511719 C 10.710938 6.300781 13.441406 6.308594 14.261719 6.511719 L 14.878906 6.671875 L 15.460938 6.320312 C 16.230469 5.859375 17.210938 5.5 17.699219 5.5 C 18.089844 5.5 18.089844 5.511719 18.25 6.019531 C 18.421875 6.609375 18.449219 7.679688 18.300781 8.191406 C 18.21875 8.488281 18.238281 8.578125 18.460938 8.871094 C 19.550781 10.308594 19.671875 12.699219 18.75 14.660156 C 18.128906 15.949219 16.820312 16.851562 15.058594 17.179688 L 14.21875 17.339844 L 14.53125 17.890625 L 14.851562 18.449219 L 14.878906 20.679688 L 14.921875 22.910156 L 15.171875 23.070312 C 15.398438 23.21875 15.449219 23.21875 15.929688 23.050781 C 16.730469 22.78125 18.101562 22.039062 18.851562 21.46875 C 23.308594 18.128906 24.75 12.140625 22.28125 7.160156 C 20.828125 4.230469 18.089844 1.980469 14.949219 1.140625 C 13.578125 0.78125 11 0.699219 9.699219 0.988281 Z M 9.699219 0.988281 "/>
</g>
</svg>
