<?xml version="1.0" encoding="UTF-8"?>
<!DOCTYPE svg PUBLIC "-//W3C//DTD SVG 1.1//EN" "http://www.w3.org/Graphics/SVG/1.1/DTD/svg11.dtd">
<svg xmlns="http://www.w3.org/2000/svg" version="1.1" width="24px" height="24px" viewBox="0 0 75 88" style="shape-rendering:geometricPrecision; text-rendering:geometricPrecision; image-rendering:optimizeQuality; fill-rule:evenodd; clip-rule:evenodd" xmlns:xlink="http://www.w3.org/1999/xlink">
<g><path style="opacity:0.916" fill="#010000" d="M 39.5,-0.5 C 41.5,-0.5 43.5,-0.5 45.5,-0.5C 47.3907,1.83574 47.8907,4.5024 47,7.5C 44.5855,10.014 42.4188,12.6806 40.5,15.5C 35.5213,18.4787 31.5213,22.4787 28.5,27.5C 22.5045,33.663 16.6712,39.9964 11,46.5C 10.1834,49.9643 10.5167,53.2976 12,56.5C 18.3694,62.7019 24.5361,69.0352 30.5,75.5C 30.6746,80.9889 28.0079,83.3223 22.5,82.5C 13.7285,75.0669 6.06184,66.7335 -0.5,57.5C -0.5,53.1667 -0.5,48.8333 -0.5,44.5C 0.892318,42.7274 2.05898,40.7274 3,38.5C 15.3717,25.6304 27.5384,12.6304 39.5,-0.5 Z"/></g>
<g><path style="opacity:0.931" fill="#fc9f15" d="M 40.5,15.5 C 48.6554,19.8081 56.1554,25.1414 63,31.5C 64.5772,36.0794 63.0772,39.0794 58.5,40.5C 51.8151,36.4912 45.4818,31.9912 39.5,27C 35.7789,26.3219 32.1122,26.4886 28.5,27.5C 31.5213,22.4787 35.5213,18.4787 40.5,15.5 Z"/></g>
<g><path style="opacity:0.909" fill="#b2b2b2" d="M 74.5,49.5 C 74.5,50.8333 74.5,52.1667 74.5,53.5C 73.5732,55.5762 71.9065,56.7428 69.5,57C 56.8333,57.6667 44.1667,57.6667 31.5,57C 28.239,56.5739 26.5723,54.7406 26.5,51.5C 26.3898,49.626 27.0564,48.126 28.5,47C 43.1667,46.3333 57.8333,46.3333 72.5,47C 73.0659,47.9947 73.7326,48.828 74.5,49.5 Z"/></g>
<g><path style="opacity:0.899" fill="#fda015" d="M 42.5,87.5 C 38.5,87.5 34.5,87.5 30.5,87.5C 27.53,86.3468 24.8633,84.6801 22.5,82.5C 28.0079,83.3223 30.6746,80.9889 30.5,75.5C 33.7786,76.4922 37.1119,76.6588 40.5,76C 45.1337,72.3679 49.467,68.3679 53.5,64C 60.6959,62.8574 63.1959,65.6907 61,72.5C 55.7804,78.9082 49.6137,83.9082 42.5,87.5 Z"/></g>
</svg>
