<?xml version="1.0" encoding="UTF-8"?>
<svg xmlns="http://www.w3.org/2000/svg" xmlns:xlink="http://www.w3.org/1999/xlink" width="24px" height="24px" viewBox="0 0 24 24" version="1.1">
<g id="surface1">
<path style=" stroke:none;fill-rule:nonzero;fill:rgb(0%,0%,0%);fill-opacity:1;" d="M 12 23.996094 C 11.769531 23.996094 11.546875 23.925781 11.359375 23.796875 L 0.492188 16.605469 C 0.367188 16.535156 0.257812 16.433594 0.179688 16.3125 L 0.179688 16.261719 C 0.0625 16.070312 0 15.851562 0 15.628906 L 0 8.351562 C 0 8.132812 0.0625 7.914062 0.179688 7.726562 L 0.179688 7.667969 C 0.261719 7.550781 0.367188 7.453125 0.492188 7.382812 L 11.359375 0.191406 C 11.75 -0.0546875 12.25 -0.0546875 12.640625 0.191406 L 23.507812 7.382812 C 23.632812 7.453125 23.738281 7.550781 23.820312 7.667969 C 23.9375 7.90625 24 8.121094 24 8.339844 L 24 15.621094 C 24 15.84375 23.9375 16.0625 23.820312 16.25 L 23.820312 16.300781 C 23.738281 16.421875 23.632812 16.523438 23.507812 16.597656 L 12.640625 23.789062 C 12.453125 23.921875 12.230469 23.992188 12 23.996094 Z M 13.136719 16.25 L 13.136719 20.746094 L 20.820312 15.640625 L 17.433594 13.359375 Z M 3.179688 15.640625 L 10.863281 20.746094 L 10.863281 16.25 L 6.566406 13.359375 Z M 8.601562 11.996094 L 12 14.277344 L 15.398438 11.996094 L 12 9.703125 Z M 19.464844 11.996094 L 21.726562 13.515625 L 21.726562 10.472656 Z M 2.273438 10.472656 L 2.273438 13.515625 L 4.535156 11.996094 Z M 13.136719 7.738281 L 17.433594 10.621094 L 20.820312 8.351562 L 13.136719 3.246094 Z M 3.179688 8.351562 L 6.566406 10.621094 L 10.863281 7.738281 L 10.863281 3.246094 Z M 3.179688 8.351562 "/>
</g>
</svg>
