<?xml version="1.0" encoding="UTF-8"?>
<svg xmlns="http://www.w3.org/2000/svg" xmlns:xlink="http://www.w3.org/1999/xlink" width="24px" height="24px" viewBox="0 0 24 24" version="1.1">
<g id="surface1">
<path style=" stroke:none;fill-rule:nonzero;fill:rgb(34.509805%,39.607844%,94.901961%);fill-opacity:1;" d="M 19.601562 5.054688 C 18.148438 4.390625 16.613281 3.917969 15.039062 3.652344 C 14.824219 4.039062 14.628906 4.433594 14.453125 4.839844 C 12.777344 4.585938 11.070312 4.585938 9.390625 4.839844 C 9.21875 4.433594 9.023438 4.039062 8.808594 3.652344 C 7.230469 3.921875 5.695312 4.394531 4.242188 5.058594 C 1.355469 9.332031 0.570312 13.496094 0.964844 17.601562 C 2.652344 18.851562 4.546875 19.800781 6.558594 20.410156 C 7.011719 19.800781 7.410156 19.15625 7.757812 18.476562 C 7.101562 18.234375 6.472656 17.933594 5.871094 17.578125 C 6.027344 17.460938 6.183594 17.34375 6.332031 17.230469 C 9.875 18.894531 13.976562 18.894531 17.519531 17.230469 C 17.667969 17.351562 17.824219 17.472656 17.980469 17.578125 C 17.378906 17.933594 16.746094 18.234375 16.089844 18.480469 C 16.433594 19.15625 16.835938 19.800781 17.289062 20.410156 C 19.300781 19.804688 21.195312 18.855469 22.886719 17.601562 C 23.347656 12.839844 22.101562 8.714844 19.601562 5.054688 Z M 8.253906 15.078125 C 7.160156 15.078125 6.261719 14.085938 6.261719 12.871094 C 6.261719 11.652344 7.128906 10.652344 8.25 10.652344 C 9.367188 10.652344 10.261719 11.652344 10.242188 12.871094 C 10.222656 14.085938 9.363281 15.078125 8.253906 15.078125 Z M 15.597656 15.078125 C 14.507812 15.078125 13.609375 14.085938 13.609375 12.871094 C 13.609375 11.652344 14.476562 10.652344 15.597656 10.652344 C 16.71875 10.652344 17.605469 11.652344 17.585938 12.871094 C 17.566406 14.085938 16.710938 15.078125 15.597656 15.078125 Z M 15.597656 15.078125 "/>
</g>
</svg>
