<?xml version="1.0" encoding="UTF-8"?>
<svg xmlns="http://www.w3.org/2000/svg" xmlns:xlink="http://www.w3.org/1999/xlink" width="24px" height="24px" viewBox="0 0 24 24" version="1.1">
<defs>
<filter id="alpha" filterUnits="objectBoundingBox" x="0%" y="0%" width="100%" height="100%">
  <feColorMatrix type="matrix" in="SourceGraphic" values="0 0 0 0 1 0 0 0 0 1 0 0 0 0 1 0 0 0 1 0"/>
</filter>
<mask id="mask0">
  <g filter="url(#alpha)">
<rect x="0" y="0" width="24" height="24" style="fill:rgb(0%,0%,0%);fill-opacity:0.917647;stroke:none;"/>
  </g>
</mask>
<clipPath id="clip1">
  <rect x="0" y="0" width="24" height="24"/>
</clipPath>
<g id="surface5" clip-path="url(#clip1)">
<path style=" stroke:none;fill-rule:evenodd;fill:rgb(0.392157%,0%,0%);fill-opacity:1;" d="M 12.546875 -0.136719 C 13.089844 -0.136719 13.636719 -0.136719 14.183594 -0.136719 C 14.699219 0.5 14.832031 1.226562 14.589844 2.046875 C 13.933594 2.730469 13.339844 3.457031 12.816406 4.226562 C 11.460938 5.039062 10.371094 6.128906 9.546875 7.5 C 7.910156 9.179688 6.320312 10.90625 4.773438 12.683594 C 4.550781 13.625 4.640625 14.535156 5.046875 15.410156 C 6.78125 17.101562 8.464844 18.828125 10.089844 20.589844 C 10.136719 22.085938 9.410156 22.722656 7.910156 22.5 C 5.515625 20.472656 3.425781 18.199219 1.636719 15.683594 C 1.636719 14.5 1.636719 13.316406 1.636719 12.136719 C 2.015625 11.652344 2.335938 11.109375 2.589844 10.5 C 5.964844 6.988281 9.28125 3.445312 12.546875 -0.136719 Z M 12.546875 -0.136719 "/>
</g>
<mask id="mask1">
  <g filter="url(#alpha)">
<rect x="0" y="0" width="24" height="24" style="fill:rgb(0%,0%,0%);fill-opacity:0.929412;stroke:none;"/>
  </g>
</mask>
<clipPath id="clip2">
  <rect x="0" y="0" width="24" height="24"/>
</clipPath>
<g id="surface8" clip-path="url(#clip2)">
<path style=" stroke:none;fill-rule:evenodd;fill:rgb(98.823529%,62.352943%,8.235294%);fill-opacity:1;" d="M 12.816406 4.226562 C 15.042969 5.402344 17.085938 6.855469 18.953125 8.589844 C 19.382812 9.839844 18.976562 10.65625 17.726562 11.046875 C 15.902344 9.953125 14.175781 8.726562 12.546875 7.363281 C 11.53125 7.179688 10.53125 7.222656 9.546875 7.5 C 10.371094 6.128906 11.460938 5.039062 12.816406 4.226562 Z M 12.816406 4.226562 "/>
</g>
<mask id="mask2">
  <g filter="url(#alpha)">
<rect x="0" y="0" width="24" height="24" style="fill:rgb(0%,0%,0%);fill-opacity:0.909804;stroke:none;"/>
  </g>
</mask>
<clipPath id="clip3">
  <rect x="0" y="0" width="24" height="24"/>
</clipPath>
<g id="surface11" clip-path="url(#clip3)">
<path style=" stroke:none;fill-rule:evenodd;fill:rgb(69.803923%,69.803923%,69.803923%);fill-opacity:1;" d="M 22.089844 13.5 C 22.089844 13.863281 22.089844 14.226562 22.089844 14.589844 C 21.839844 15.15625 21.382812 15.476562 20.726562 15.546875 C 17.273438 15.726562 13.816406 15.726562 10.363281 15.546875 C 9.472656 15.429688 9.019531 14.929688 9 14.046875 C 8.96875 13.535156 9.152344 13.125 9.546875 12.816406 C 13.546875 12.636719 17.546875 12.636719 21.546875 12.816406 C 21.699219 13.089844 21.882812 13.316406 22.089844 13.5 Z M 22.089844 13.5 "/>
</g>
<mask id="mask3">
  <g filter="url(#alpha)">
<rect x="0" y="0" width="24" height="24" style="fill:rgb(0%,0%,0%);fill-opacity:0.898039;stroke:none;"/>
  </g>
</mask>
<clipPath id="clip4">
  <rect x="0" y="0" width="24" height="24"/>
</clipPath>
<g id="surface14" clip-path="url(#clip4)">
<path style=" stroke:none;fill-rule:evenodd;fill:rgb(99.215686%,62.7451%,8.235294%);fill-opacity:1;" d="M 13.363281 23.863281 C 12.273438 23.863281 11.183594 23.863281 10.089844 23.863281 C 9.28125 23.550781 8.554688 23.09375 7.910156 22.5 C 9.410156 22.722656 10.136719 22.085938 10.089844 20.589844 C 10.984375 20.863281 11.894531 20.90625 12.816406 20.726562 C 14.082031 19.738281 15.265625 18.644531 16.363281 17.453125 C 18.324219 17.144531 19.007812 17.914062 18.410156 19.773438 C 16.984375 21.519531 15.304688 22.882812 13.363281 23.863281 Z M 13.363281 23.863281 "/>
</g>
</defs>
<g id="surface1">
<use xlink:href="#surface5" mask="url(#mask0)"/>
<use xlink:href="#surface8" mask="url(#mask1)"/>
<use xlink:href="#surface11" mask="url(#mask2)"/>
<use xlink:href="#surface14" mask="url(#mask3)"/>
</g>
</svg>
