<?xml version="1.0" encoding="UTF-8"?>
<svg xmlns="http://www.w3.org/2000/svg" xmlns:xlink="http://www.w3.org/1999/xlink" width="24px" height="24px" viewBox="0 0 24 24" version="1.1">
<defs>
<linearGradient id="linear0" gradientUnits="userSpaceOnUse" x1="16.666666" y1="56.666668" x2="6.666667" y2="80" gradientTransform="matrix(0.6,0,0,0.6,6,-30)">
<stop offset="0" style="stop-color:rgb(21.568627%,68.235294%,88.627451%);stop-opacity:1;"/>
<stop offset="1" style="stop-color:rgb(11.764706%,58.823529%,78.431373%);stop-opacity:1;"/>
</linearGradient>
<linearGradient id="linear1" gradientUnits="userSpaceOnUse" x1="135" y1="120" x2="160" y2="160" gradientTransform="matrix(0.1,0,0,0.1,0,0)">
<stop offset="0" style="stop-color:rgb(93.72549%,96.862745%,98.823529%);stop-opacity:1;"/>
<stop offset="1" style="stop-color:rgb(100%,100%,100%);stop-opacity:1;"/>
</linearGradient>
</defs>
<g id="surface1">
<path style=" stroke:none;fill-rule:nonzero;fill:url(#linear0);" d="M 24 12 C 24 18.628906 18.628906 24 12 24 C 5.371094 24 0 18.628906 0 12 C 0 5.371094 5.371094 0 12 0 C 18.628906 0 24 5.371094 24 12 Z M 24 12 "/>
<path style=" stroke:none;fill-rule:nonzero;fill:rgb(78.431374%,85.490197%,91.764706%);fill-opacity:1;" d="M 9.800781 17.5 C 9.410156 17.5 9.476562 17.351562 9.34375 16.984375 L 8.199219 13.21875 L 15.28125 8.796875 L 16.105469 9.011719 L 15.417969 10.894531 Z M 9.800781 17.5 "/>
<path style=" stroke:none;fill-rule:nonzero;fill:rgb(66.274512%,78.823531%,86.666667%);fill-opacity:1;" d="M 9.800781 17.5 C 10.101562 17.5 10.234375 17.363281 10.398438 17.199219 C 10.65625 16.949219 14 13.699219 14 13.699219 L 11.953125 13.203125 L 10.054688 14.40625 L 9.800781 17.398438 Z M 9.800781 17.5 "/>
<path style=" stroke:none;fill-rule:nonzero;fill:url(#linear1);" d="M 10.003906 14.441406 L 14.839844 18.011719 C 15.390625 18.316406 15.789062 18.160156 15.929688 17.5 L 17.894531 8.226562 C 18.097656 7.417969 17.589844 7.050781 17.058594 7.289062 L 5.5 11.75 C 4.710938 12.066406 4.714844 12.503906 5.355469 12.703125 L 8.324219 13.628906 L 15.191406 9.292969 C 15.515625 9.097656 15.8125 9.203125 15.566406 9.421875 Z M 10.003906 14.441406 "/>
</g>
</svg>
