<?xml version="1.0" encoding="UTF-8"?>
<svg xmlns="http://www.w3.org/2000/svg" xmlns:xlink="http://www.w3.org/1999/xlink" width="24px" height="24px" viewBox="0 0 24 24" version="1.1">
<g id="surface1">
<path style=" stroke:none;fill-rule:evenodd;fill:rgb(15.294118%,52.941179%,96.078432%);fill-opacity:1;" d="M 8.320312 0 L 15.679688 0 C 22.398438 0 24 1.601562 24 8.320312 L 24 15.679688 C 24 22.398438 22.398438 24 15.679688 24 L 8.320312 24 C 1.601562 24 0 22.398438 0 15.679688 L 0 8.320312 C 0 1.601562 1.601562 0 8.320312 0 Z M 8.320312 0 "/>
<path style=" stroke:none;fill-rule:evenodd;fill:rgb(100%,100%,100%);fill-opacity:1;" d="M 19.652344 8.269531 C 19.765625 7.898438 19.652344 7.625 19.125 7.625 L 17.375 7.625 C 16.929688 7.625 16.726562 7.859375 16.613281 8.121094 C 16.613281 8.121094 15.722656 10.289062 14.464844 11.699219 C 14.054688 12.105469 13.871094 12.234375 13.648438 12.234375 C 13.535156 12.234375 13.375 12.105469 13.375 11.734375 L 13.375 8.269531 C 13.375 7.824219 13.246094 7.625 12.875 7.625 L 10.125 7.625 C 9.847656 7.625 9.679688 7.832031 9.679688 8.027344 C 9.679688 8.449219 10.308594 8.546875 10.375 9.734375 L 10.375 12.308594 C 10.375 12.875 10.273438 12.976562 10.050781 12.976562 C 9.457031 12.976562 8.015625 10.796875 7.160156 8.304688 C 6.992188 7.820312 6.824219 7.625 6.375 7.625 L 4.625 7.625 C 4.125 7.625 4.023438 7.859375 4.023438 8.121094 C 4.023438 8.582031 4.617188 10.882812 6.789062 13.921875 C 8.234375 16 10.269531 17.125 12.125 17.125 C 13.238281 17.125 13.375 16.875 13.375 16.445312 L 13.375 14.875 C 13.375 14.375 13.480469 14.273438 13.832031 14.273438 C 14.09375 14.273438 14.539062 14.40625 15.574219 15.40625 C 16.761719 16.59375 16.957031 17.125 17.625 17.125 L 19.375 17.125 C 19.875 17.125 20.125 16.875 19.980469 16.382812 C 19.824219 15.890625 19.257812 15.175781 18.503906 14.332031 C 18.097656 13.847656 17.484375 13.328125 17.300781 13.070312 C 17.039062 12.738281 17.113281 12.589844 17.300781 12.292969 C 17.300781 12.292969 19.433594 9.289062 19.652344 8.269531 Z M 19.652344 8.269531 "/>
</g>
</svg>
