<?xml version="1.0" encoding="UTF-8"?>
<svg xmlns="http://www.w3.org/2000/svg" xmlns:xlink="http://www.w3.org/1999/xlink" width="24px" height="24px" viewBox="0 0 24 24" version="1.1">
<defs>
<linearGradient id="linear0" gradientUnits="userSpaceOnUse" x1="1337.280029" y1="518.23999" x2="1337.280029" y2="-2164.820068" gradientTransform="matrix(0.00890625,0,0,-0.00890625,0.0379688,4.635469)">
<stop offset="0" style="stop-color:rgb(38.039216%,99.215686%,49.019608%);stop-opacity:1;"/>
<stop offset="1" style="stop-color:rgb(16.862745%,72.156863%,14.901961%);stop-opacity:1;"/>
</linearGradient>
</defs>
<g id="surface1">
<path style=" stroke:none;fill-rule:evenodd;fill:url(#linear0);" d="M 24 17.910156 C 24 18.039062 23.996094 18.324219 23.988281 18.546875 C 23.96875 19.085938 23.925781 19.78125 23.859375 20.097656 C 23.773438 20.546875 23.628906 20.984375 23.425781 21.394531 C 22.980469 22.273438 22.269531 22.984375 21.390625 23.429688 C 20.976562 23.632812 20.539062 23.777344 20.085938 23.863281 C 19.769531 23.925781 19.082031 23.96875 18.546875 23.988281 C 18.324219 23.996094 18.039062 24 17.910156 24 L 6.09375 24 C 5.960938 24 5.675781 23.996094 5.457031 23.988281 C 4.917969 23.96875 4.222656 23.925781 3.90625 23.863281 C 3.457031 23.773438 3.019531 23.628906 2.605469 23.425781 C 1.726562 22.980469 1.015625 22.269531 0.570312 21.390625 C 0.367188 20.976562 0.222656 20.535156 0.136719 20.082031 C 0.0742188 19.769531 0.03125 19.078125 0.0117188 18.542969 C 0.00390625 18.324219 0 18.039062 0 17.90625 L 0 6.089844 C 0 5.957031 0.00390625 5.671875 0.0117188 5.453125 C 0.0351562 4.914062 0.0742188 4.21875 0.140625 3.902344 C 0.226562 3.453125 0.375 3.015625 0.574219 2.605469 C 1.019531 1.726562 1.734375 1.015625 2.609375 0.570312 C 3.023438 0.367188 3.464844 0.222656 3.917969 0.136719 C 4.230469 0.0742188 4.921875 0.03125 5.457031 0.0117188 C 5.675781 0.00390625 5.960938 0 6.09375 0 L 17.910156 0 C 18.042969 0 18.328125 0.00390625 18.546875 0.0117188 C 19.085938 0.0351562 19.78125 0.0742188 20.097656 0.140625 C 20.546875 0.226562 20.984375 0.375 21.394531 0.574219 C 22.273438 1.019531 22.984375 1.734375 23.429688 2.609375 C 23.632812 3.023438 23.777344 3.464844 23.863281 3.917969 C 23.925781 4.230469 23.96875 4.921875 23.988281 5.457031 C 23.996094 5.675781 24 5.960938 24 6.09375 Z M 24 17.910156 "/>
<path style=" stroke:none;fill-rule:evenodd;fill:rgb(100%,100%,100%);fill-opacity:1;" d="M 17.792969 6.171875 C 16.269531 4.636719 14.195312 3.777344 12.03125 3.785156 C 7.546875 3.785156 3.894531 7.4375 3.894531 11.925781 C 3.890625 13.355469 4.265625 14.757812 4.980469 15.996094 L 3.824219 20.214844 L 8.140625 19.082031 C 9.335938 19.730469 10.671875 20.074219 12.03125 20.074219 L 12.035156 20.074219 C 16.523438 20.074219 20.175781 16.421875 20.175781 11.933594 C 20.183594 9.769531 19.324219 7.699219 17.789062 6.171875 Z M 12.035156 18.703125 C 10.820312 18.703125 9.628906 18.378906 8.585938 17.757812 L 8.339844 17.613281 L 5.777344 18.28125 L 6.460938 15.785156 L 6.300781 15.527344 C 5.621094 14.449219 5.261719 13.203125 5.265625 11.925781 C 5.265625 8.195312 8.300781 5.15625 12.039062 5.15625 C 15.777344 5.15625 18.804688 8.191406 18.800781 11.929688 C 18.800781 15.664062 15.761719 18.699219 12.035156 18.699219 Z M 15.742188 13.632812 C 15.542969 13.527344 14.539062 13.039062 14.355469 12.96875 C 14.167969 12.902344 14.03125 12.867188 13.894531 13.074219 C 13.757812 13.277344 13.367188 13.734375 13.25 13.871094 C 13.128906 14.003906 13.011719 14.023438 12.808594 13.921875 C 12.609375 13.816406 11.949219 13.601562 11.171875 12.910156 C 10.570312 12.371094 10.160156 11.703125 10.042969 11.503906 C 9.921875 11.304688 10.027344 11.1875 10.132812 11.089844 C 10.226562 11 10.335938 10.851562 10.4375 10.734375 C 10.539062 10.613281 10.570312 10.53125 10.640625 10.394531 C 10.707031 10.253906 10.675781 10.140625 10.621094 10.035156 C 10.570312 9.933594 10.164062 8.933594 9.996094 8.523438 C 9.832031 8.125 9.664062 8.183594 9.539062 8.175781 C 9.414062 8.167969 9.285156 8.167969 9.148438 8.167969 C 8.941406 8.175781 8.746094 8.265625 8.609375 8.421875 C 8.421875 8.625 7.894531 9.117188 7.894531 10.121094 C 7.894531 11.121094 8.625 12.089844 8.726562 12.226562 C 8.828125 12.363281 10.160156 14.417969 12.199219 15.296875 C 12.6875 15.503906 13.066406 15.632812 13.359375 15.726562 C 13.773438 15.851562 14.214844 15.878906 14.640625 15.808594 C 15.03125 15.75 15.84375 15.316406 16.015625 14.839844 C 16.183594 14.367188 16.183594 13.957031 16.132812 13.875 C 16.082031 13.792969 15.949219 13.734375 15.746094 13.628906 Z M 15.742188 13.632812 "/>
</g>
</svg>
